<svg width="84" height="83" viewBox="0 0 84 83" fill="none" xmlns="http://www.w3.org/2000/svg">
    <path fillRule="evenodd" clipRule="evenodd"
        d="M17.609 42.9715H21.6396C22.4517 42.9715 23.1117 42.3126 23.1117 41.4994C23.1117 40.6874 22.4517 40.0284 21.6396 40.0284H17.609C16.7969 40.0284 16.1369 40.6874 16.1369 41.4994C16.1369 42.3126 16.7969 42.9715 17.609 42.9715ZM33.1941 46.5825C33.6057 47.2959 34.5085 47.5238 35.2048 47.1235L42.7343 42.7764C43.1902 42.5122 43.4703 42.0257 43.4703 41.4994V29.5378C43.4703 28.7247 42.8137 28.0658 41.9982 28.0658C41.1851 28.0658 40.5262 28.7247 40.5262 29.5378V40.6511L33.7316 44.5729C33.0307 44.98 32.788 45.8817 33.1941 46.5825ZM40.5262 21.1419C40.5262 21.954 41.1851 22.6129 41.9982 22.6129C42.8137 22.6129 43.4703 21.954 43.4703 21.1419V17.1101C43.4703 16.2981 42.8137 15.638 41.9982 15.638C41.1851 15.638 40.5262 16.2981 40.5262 17.1101V21.1419ZM60.8893 41.4994C60.8893 42.3126 61.5482 42.9715 62.3591 42.9715H66.3898C67.2041 42.9715 67.8641 42.3126 67.8641 41.4994C67.8641 40.6874 67.2041 40.0284 66.3898 40.0284H62.3591C61.5482 40.0284 60.8893 40.6874 60.8893 41.4994ZM43.4703 61.8603C43.4703 61.0471 42.8137 60.386 41.9982 60.386C41.1851 60.386 40.5262 61.0471 40.5262 61.8603V65.8898C40.5262 66.703 41.1851 67.3619 41.9982 67.3619C42.8137 67.3619 43.4703 66.703 43.4703 65.8898V61.8603ZM13.0725 41.4994C13.0725 25.5502 26.0479 12.5725 41.9982 12.5725C57.9508 12.5725 70.9263 25.5502 70.9263 41.4994C70.9263 57.452 57.9508 70.4275 41.9982 70.4275C26.0479 70.4275 13.0725 57.452 13.0725 41.4994ZM74.3921 16.1291C87.2213 32.4695 85.8025 55.8823 71.093 70.593C57.3939 84.2944 36.077 86.5013 19.9622 76.25L21.4037 80.5472C21.6906 81.4035 21.0419 82.2779 20.1573 82.2779C19.6118 82.2779 19.1003 81.9297 18.9154 81.3819L16.1924 73.2729C15.9917 72.605 16.3274 72.1933 16.3274 72.1627H16.3285C16.5383 71.8111 16.8797 71.6307 17.271 71.5581L25.7485 70.4683C26.4687 70.3753 27.1253 70.8811 27.2183 71.6012C27.3125 72.3214 26.8055 72.9781 26.0865 73.07L20.9093 73.7379C36.0021 83.6433 56.2451 81.7301 69.2353 68.7365C83.008 54.966 84.3384 33.0479 72.328 17.7509C71.8812 17.1816 71.9799 16.356 72.5492 15.9068C73.1196 15.46 73.9453 15.5586 74.3921 16.1291ZM11.6729 65.2513C12.3545 66.12 11.7013 67.3721 10.6409 67.3721C10.2508 67.3721 9.86518 67.1997 9.60656 66.8697C-3.22146 50.5304 -1.80268 27.1187 12.908 12.4069C26.6445 -1.32956 47.9705 -3.4742 64.0365 6.74993L62.5961 2.45384C62.3659 1.7666 62.7356 1.02261 63.4229 0.791252C64.1113 0.561012 64.8542 0.931888 65.0855 1.61801L67.8449 9.87896C68.0021 10.5902 67.5194 11.3218 66.7277 11.4429L58.0812 12.543C57.4302 12.543 56.8666 12.061 56.7804 11.3998C56.6874 10.6797 57.1943 10.0207 57.9145 9.92999L63.0895 9.26425C47.9977 -0.644561 27.7548 1.27096 14.7612 14.2635C0.990681 28.034 -0.338547 49.9543 11.6729 65.2513Z"
        fill="black" />
</svg>