<svg width="12" height="12" viewBox="0 0 12 12" fill="none" xmlns="http://www.w3.org/2000/svg">
    <g clipPath="url(#clip0_789_1040)">
        <path
            d="M6.00005 0C2.68675 0 0 2.75072 0 6.14405C0 8.85865 1.7192 11.1617 4.1032 11.9741C4.40306 12.031 4.51315 11.8408 4.51315 11.6786C4.51315 11.532 4.50759 11.0481 4.50501 10.5347C2.83579 10.9063 2.48356 9.80975 2.48356 9.80975C2.21062 9.09958 1.81736 8.91074 1.81736 8.91074C1.27298 8.52941 1.8584 8.53725 1.8584 8.53725C2.46091 8.58059 2.77816 9.17039 2.77816 9.17039C3.3133 10.1097 4.18179 9.83813 4.52418 9.68114C4.57803 9.28404 4.73353 9.013 4.90512 8.85957C3.57243 8.70421 2.17148 8.17738 2.17148 5.82315C2.17148 5.15236 2.40586 4.60427 2.78968 4.174C2.72739 4.01925 2.52201 3.39435 2.84781 2.54805C2.84781 2.54805 3.35165 2.38292 4.49825 3.17784C4.97686 3.04171 5.49014 2.97344 6.00005 2.9711C6.50996 2.97344 7.02364 3.04171 7.50314 3.17784C8.64835 2.38292 9.1515 2.54805 9.1515 2.54805C9.47809 3.39435 9.27261 4.01925 9.21032 4.174C9.59503 4.60427 9.82783 5.15236 9.82783 5.82315C9.82783 8.18298 8.42419 8.70258 7.08812 8.85468C7.30333 9.04535 7.49509 9.41926 7.49509 9.99248C7.49509 10.8146 7.48814 11.4762 7.48814 11.6786C7.48814 11.8421 7.59614 12.0336 7.90028 11.9733C10.283 11.16 12 8.85774 12 6.14405C12 2.75072 9.31365 0 6.00005 0ZM2.24721 8.75233C2.234 8.78285 2.1871 8.79201 2.14438 8.77105C2.10086 8.75101 2.07642 8.70939 2.09053 8.67877C2.10344 8.64733 2.15044 8.63858 2.19386 8.65964C2.23748 8.67968 2.26232 8.7217 2.24721 8.75233ZM2.54235 9.022C2.51373 9.04916 2.4578 9.03654 2.41984 8.99361C2.38059 8.95078 2.37324 8.89349 2.40225 8.86592C2.43176 8.83876 2.48601 8.85147 2.52536 8.89431C2.56461 8.93765 2.57226 8.99452 2.54235 9.022ZM2.74482 9.36702C2.70806 9.39317 2.64795 9.36865 2.61079 9.31402C2.57403 9.25938 2.57403 9.19386 2.61158 9.16761C2.64884 9.14136 2.70806 9.16496 2.74572 9.21919C2.78238 9.27474 2.78238 9.34027 2.74482 9.36702ZM3.08725 9.76662C3.05436 9.80375 2.98432 9.79378 2.93305 9.74311C2.88059 9.69356 2.86598 9.62326 2.89897 9.58612C2.93225 9.54889 3.0027 9.55937 3.05436 9.60963C3.10643 9.65907 3.12232 9.72989 3.08725 9.76662ZM3.52981 9.90151C3.5153 9.94964 3.44783 9.97151 3.37987 9.95106C3.31201 9.93 3.2676 9.87364 3.28131 9.825C3.29542 9.77657 3.36318 9.75378 3.43164 9.77566C3.4994 9.79662 3.54391 9.85257 3.52981 9.90151ZM4.03345 9.95873C4.03514 10.0094 3.97751 10.0514 3.90617 10.0523C3.83444 10.054 3.77641 10.013 3.77562 9.96311C3.77562 9.91193 3.83195 9.87032 3.90369 9.8691C3.97503 9.86767 4.03345 9.90837 4.03345 9.95873ZM4.52823 9.93931C4.53677 9.98876 4.48719 10.0395 4.41635 10.0531C4.3467 10.0661 4.28221 10.0356 4.27337 9.98652C4.26473 9.93585 4.3152 9.88508 4.38475 9.87196C4.45569 9.85934 4.51918 9.88905 4.52823 9.93931Z"
            fill="#262D3C" />
    </g>
    <defs>
        <clipPath id="clip0_789_1040">
            <rect width="12" height="12" fill="white" />
        </clipPath>
    </defs>
</svg>