<svg width="1413" height="731" viewBox="0 0 1413 731" preserveAspectRatio='none' fill="none"
    xmlns="http://www.w3.org/2000/svg">
    <path d="M706.067 1L706.587 300.648V431.244L706.093 730.73" stroke="#000" stroke-width="0.4"
        stroke-linecap="round" stroke-linejoin="round" />
    <path d="M353.9 730.73L643.481 431.244V300.648L352.982 1" stroke="#000" stroke-width="0.4"
        stroke-linecap="round" stroke-linejoin="round" />
    <path d="M1059.15 1L769.7 300.648V431.244L1058.29 730.73" stroke="#000" stroke-width="0.4"
        stroke-linecap="round" stroke-linejoin="round" />
    <path d="M1.2981 548.483L454.153 431.245V300.647L1.42915 183.745" stroke="#000"
        stroke-width="0.4" stroke-linecap="round" stroke-linejoin="round" />
    <path d="M1.2981 432.288L12.3944 431.244V300.647L1.2981 299.606" stroke="#000"
        stroke-width="0.4" stroke-linecap="round" stroke-linejoin="round" />
    <path d="M1.2981 438.933L75.5015 431.246V300.649L1.2981 292.982" stroke="#000"
        stroke-width="0.4" stroke-linecap="round" stroke-linejoin="round" />
    <path d="M1.2981 447.047L138.609 431.244V300.647L1.2981 284.884" stroke="#000"
        stroke-width="0.4" stroke-linecap="round" stroke-linejoin="round" />
    <path d="M1.2981 457.193L201.72 431.243V300.646L1.2981 274.764" stroke="#000" stroke-width="0.4"
        stroke-linecap="round" stroke-linejoin="round" />
    <path d="M1.2981 470.239L264.827 431.246V300.649L1.2981 261.756" stroke="#000"
        stroke-width="0.4" stroke-linecap="round" stroke-linejoin="round" />
    <path d="M1.2981 487.625L327.934 431.244V300.647L1.2981 244.408" stroke="#000"
        stroke-width="0.4" stroke-linecap="round" stroke-linejoin="round" />
    <path d="M1.2981 511.973L391.048 431.246V300.648L1.2981 220.129" stroke="#000"
        stroke-width="0.4" stroke-linecap="round" stroke-linejoin="round" />
    <path d="M1.2981 609.322L517.26 431.246V300.648L1.2981 123.029" stroke="#000" stroke-width="0.4"
        stroke-linecap="round" stroke-linejoin="round" />
    <path d="M1.70875 730.728L580.374 431.243V300.647L1.2981 1.7207" stroke="#000"
        stroke-width="0.4" stroke-linecap="round" stroke-linejoin="round" />
    <path d="M1411.88 432.288L1400.79 431.244V300.647L1411.88 299.606" stroke="#000"
        stroke-width="0.4" stroke-linecap="round" stroke-linejoin="round" />
    <path d="M1411.88 438.931L1337.68 431.243V300.647L1411.88 292.977" stroke="#000"
        stroke-width="0.4" stroke-linecap="round" stroke-linejoin="round" />
    <path d="M1411.88 447.056L1274.58 431.246V300.65L1411.88 284.882" stroke="#000"
        stroke-width="0.4" stroke-linecap="round" stroke-linejoin="round" />
    <path d="M1411.88 457.204L1211.46 431.243V300.647L1411.88 274.753" stroke="#000"
        stroke-width="0.4" stroke-linecap="round" stroke-linejoin="round" />
    <path d="M1411.88 470.254L1148.36 431.244V300.647L1411.88 261.736" stroke="#000"
        stroke-width="0.4" stroke-linecap="round" stroke-linejoin="round" />
    <path d="M1411.88 244.38L1085.25 300.647L1085.25 431.245L1411.88 487.658" stroke="#000"
        stroke-width="0.4" stroke-linecap="round" stroke-linejoin="round" />
    <path d="M1411.88 220.072L1022.14 300.648L1022.13 431.245L1412 512.05" stroke="#000"
        stroke-width="0.4" stroke-linecap="round" stroke-linejoin="round" />
    <path d="M1411.99 183.581L959.036 300.647L959.029 431.243L1411.88 548.583" stroke="#000"
        stroke-width="0.4" stroke-linecap="round" stroke-linejoin="round" />
    <path d="M1411.99 122.783L895.921 300.646V431.244L1411.88 609.522" stroke="#000"
        stroke-width="0.4" stroke-linecap="round" stroke-linejoin="round" />
    <path d="M1411.88 1.1875L832.809 300.648V431.244L1410.48 730.73" stroke="#000"
        stroke-width="0.4" stroke-linecap="round" stroke-linejoin="round" />
    <path d="M1411.88 124.228H1.2981" stroke="#000" stroke-width="0.4" stroke-linecap="round"
        stroke-linejoin="round" />
    <path d="M1411.88 242.257H1.2981" stroke="#000" stroke-width="0.4" stroke-linecap="round"
        stroke-linejoin="round" />
    <path d="M1411.88 202.312H1.2981" stroke="#000" stroke-width="0.4" stroke-linecap="round"
        stroke-linejoin="round" />
    <path d="M1411.88 157.403H1.2981" stroke="#000" stroke-width="0.4" stroke-linecap="round"
        stroke-linejoin="round" />
    <path d="M1411.88 300.655H1.2981" stroke="#000" stroke-width="0.4" stroke-linecap="round"
        stroke-linejoin="round" />
    <path d="M1411.88 78.4927H1.2981" stroke="#000" stroke-width="0.4" stroke-linecap="round"
        stroke-linejoin="round" />
    <path d="M1411.88 182.57H1.2981" stroke="#000" stroke-width="0.4" stroke-linecap="round"
        stroke-linejoin="round" />
    <path d="M1411.88 218.216H1.2981" stroke="#000" stroke-width="0.4" stroke-linecap="round"
        stroke-linejoin="round" />
    <path d="M1411.88 282.82H1.2981" stroke="#000" stroke-width="0.4" stroke-linecap="round"
        stroke-linejoin="round" />
    <path d="M1411.88 272.62H1.2981" stroke="#000" stroke-width="0.4" stroke-linecap="round"
        stroke-linejoin="round" />
    <path d="M1411.88 266.521H1.2981" stroke="#000" stroke-width="0.4" stroke-linecap="round"
        stroke-linejoin="round" />
    <path d="M1411.88 278.017H1.2981" stroke="#000" stroke-width="0.4" stroke-linecap="round"
        stroke-linejoin="round" />
    <path d="M1411.88 291.01H1.2981" stroke="#000" stroke-width="0.4" stroke-linecap="round"
        stroke-linejoin="round" />
    <path d="M1411.88 287.128H1.2981" stroke="#000" stroke-width="0.4" stroke-linecap="round"
        stroke-linejoin="round" />
    <path d="M1411.88 294.524H1.2981" stroke="#000" stroke-width="0.4" stroke-linecap="round"
        stroke-linejoin="round" />
    <path d="M1411.88 297.729H1.2981" stroke="#000" stroke-width="0.4" stroke-linecap="round"
        stroke-linejoin="round" />
    <path d="M1411.88 11.4107H1.2981" stroke="#000" stroke-width="0.4" stroke-linecap="round"
        stroke-linejoin="round" />
    <path d="M1411.88 251.561H1.2981" stroke="#000" stroke-width="0.4" stroke-linecap="round"
        stroke-linejoin="round" />
    <path d="M1411.88 231.302H1.2981" stroke="#000" stroke-width="0.4" stroke-linecap="round"
        stroke-linejoin="round" />
    <path d="M1411.88 259.564H1.2981" stroke="#000" stroke-width="0.4" stroke-linecap="round"
        stroke-linejoin="round" />
    <path d="M1.2981 431.243H1411.88" stroke="#000" stroke-width="0.4" stroke-linecap="round"
        stroke-linejoin="round" />
    <path d="M1.2981 398.598H1411.88" stroke="#000" stroke-width="0.4" stroke-linecap="round"
        stroke-linejoin="round" />
    <path d="M1.2981 365.952H1411.88" stroke="#000" stroke-width="0.4" stroke-linecap="round"
        stroke-linejoin="round" />
    <path d="M1.2981 333.301H1411.88" stroke="#000" stroke-width="0.4" stroke-linecap="round"
        stroke-linejoin="round" />
    <path d="M1.2981 300.655H1411.88" stroke="#000" stroke-width="0.4" stroke-linecap="round"
        stroke-linejoin="round" />
    <path d="M1411.58 431.243H1.30151" stroke="#000" stroke-width="0.4" stroke-linecap="round"
        stroke-linejoin="round" />
    <path d="M1411.88 434.18H1.2981" stroke="#000" stroke-width="0.4" stroke-linecap="round"
        stroke-linejoin="round" />
    <path d="M1411.88 437.39H1.2981" stroke="#000" stroke-width="0.4" stroke-linecap="round"
        stroke-linejoin="round" />
    <path d="M1411.88 440.918H1.2981" stroke="#000" stroke-width="0.4" stroke-linecap="round"
        stroke-linejoin="round" />
    <path d="M1411.88 444.806H1.2981" stroke="#000" stroke-width="0.4" stroke-linecap="round"
        stroke-linejoin="round" />
    <path d="M1411.88 449.127H1.2981" stroke="#000" stroke-width="0.4" stroke-linecap="round"
        stroke-linejoin="round" />
    <path d="M1411.88 453.942H1.2981" stroke="#000" stroke-width="0.4" stroke-linecap="round"
        stroke-linejoin="round" />
    <path d="M1411.88 459.355H1.2981" stroke="#000" stroke-width="0.4" stroke-linecap="round"
        stroke-linejoin="round" />
    <path d="M1411.88 465.469H1.2981" stroke="#000" stroke-width="0.4" stroke-linecap="round"
        stroke-linejoin="round" />
    <path d="M1411.88 472.443H1.2981" stroke="#000" stroke-width="0.4" stroke-linecap="round"
        stroke-linejoin="round" />
    <path d="M1411.88 480.466H1.2981" stroke="#000" stroke-width="0.4" stroke-linecap="round"
        stroke-linejoin="round" />
    <path d="M1411.88 489.799H1.2981" stroke="#000" stroke-width="0.4" stroke-linecap="round"
        stroke-linejoin="round" />
    <path d="M1411.88 500.781H1.2981" stroke="#000" stroke-width="0.4" stroke-linecap="round"
        stroke-linejoin="round" />
    <path d="M1411.88 513.9H1.2981" stroke="#000" stroke-width="0.4" stroke-linecap="round"
        stroke-linejoin="round" />
    <path d="M1411.88 529.85H1" stroke="#000" stroke-width="0.4" stroke-linecap="round"
        stroke-linejoin="round" />
    <path d="M1411.88 549.645H1.2981" stroke="#000" stroke-width="0.4" stroke-linecap="round"
        stroke-linejoin="round" />
    <path d="M1411.88 574.88H1.2981" stroke="#000" stroke-width="0.4" stroke-linecap="round"
        stroke-linejoin="round" />
    <path d="M1411.88 608.148H1.2981" stroke="#000" stroke-width="0.4" stroke-linecap="round"
        stroke-linejoin="round" />
    <path d="M1411.88 654.01H1.2981" stroke="#000" stroke-width="0.4" stroke-linecap="round"
        stroke-linejoin="round" />
    <path d="M1411.88 721.29H1.2981" stroke="#000" stroke-width="0.4" stroke-linecap="round"
        stroke-linejoin="round" />
</svg>