<svg width="62" height="75" viewBox="0 0 62 75" fill="none" xmlns="http://www.w3.org/2000/svg">
<path fill-rule="evenodd" clip-rule="evenodd" d="M23.476 13.3503V19.3607C17.9086 21.191 12.9273 24.9368 9.00118 29.6572C3.42852 36.3578 0 45.005 0 52.7707C0 68.4959 13.7923 75 31 75C48.2077 75 62 68.4959 62 52.7707C62 45.005 58.5715 36.3578 52.9988 29.6572C49.0727 24.9368 44.0914 21.191 38.524 19.3607V13.3503L42.1688 4.52995C42.4136 3.93796 42.187 3.26066 41.6347 2.93235C41.6347 2.93235 39.1701 1.46401 37.5288 0.486841C36.1767 -0.319712 34.4442 -0.107734 33.3265 1.00128C32.7794 1.54674 32.1203 2.19818 31.5393 2.77466C31.2423 3.06936 30.7577 3.06936 30.4607 2.77466C29.8797 2.19818 29.2206 1.54674 28.6735 1.00128C27.5558 -0.107734 25.8233 -0.319712 24.4712 0.486841C22.8299 1.46401 20.3653 2.93235 20.3653 2.93235C19.813 3.26066 19.5864 3.93796 19.8312 4.52995L23.476 13.3503ZM29.6974 34.3259C25.6019 34.3569 22.2906 37.6607 22.2906 41.7322V41.74C22.2906 45.8115 25.6019 49.1153 29.6974 49.1489V58.8043H28.215C26.3809 58.8043 24.8959 57.3282 24.8959 55.5109C24.8959 53.691 22.2906 54.0942 22.2906 55.5057V55.5212V55.5109C22.2906 58.7552 24.9428 61.3894 28.215 61.3894H29.6974V63.155C29.6974 63.8685 30.2809 64.4476 31 64.4476C31.7191 64.4476 32.3026 63.8685 32.3026 63.155V61.3868C36.3981 61.3558 39.7094 58.052 39.7094 53.9805V53.9727C39.7094 49.9012 36.3981 46.5974 32.3026 46.5638V36.9084H33.785C35.6191 36.9084 37.1041 38.3845 37.1041 40.2019L37.1067 40.2898C37.1276 40.6698 37.2813 40.9309 37.4767 41.1118C37.7138 41.3496 38.042 41.4996 38.4068 41.4996C38.4068 41.4996 39.7094 41.4169 39.7094 40.2019C39.7094 36.9575 37.0572 34.3233 33.785 34.3233H32.3026V32.5577C32.3026 31.8442 31.7191 31.2651 31 31.2651C30.2809 31.2651 29.6974 31.8442 29.6974 32.5577V34.3259ZM32.3026 49.1489V58.8017C34.96 58.7707 37.1041 56.6225 37.1041 53.9805V53.9727C37.1041 51.3282 34.96 49.1825 32.3026 49.1489ZM29.6974 36.911C27.04 36.942 24.8959 39.0903 24.8959 41.7322V41.74C24.8959 44.3846 27.04 46.5302 29.6974 46.5638V36.911ZM31 18.1328H31.1563H31.2345H31.3048L31.4116 18.1354L31.5471 18.138L31.6253 18.1405L31.7034 18.1431L31.8597 18.1483L31.9639 18.1509C33.3057 18.2078 34.6239 18.3784 35.9187 18.655V14.387H26.0813V16.5274C26.0813 17.1789 26.0813 17.8303 26.0813 18.4818V18.655C27.3761 18.3784 28.6943 18.2078 30.0361 18.1509L30.1403 18.1483L30.208 18.1457L30.2992 18.1431L30.4529 18.138L30.5311 18.1354H30.6014L30.7134 18.1328H30.8437H30.9218H31Z" fill="black"/>
</svg>
