<svg width="210" height="152" viewBox="0 0 210 152" fill="none" xmlns="http://www.w3.org/2000/svg">
<path d="M6.04291 126.526C4.70416 128.668 4.03479 130.86 4.03479 133.102C4.03479 135.545 4.92171 137.771 6.69555 139.779C7.66614 140.917 8.88775 141.804 10.3604 142.44C11.8665 143.076 13.5064 143.394 15.2803 143.394C17.0541 143.394 18.6439 143.059 20.0495 142.39C22.8609 141.017 24.2666 138.775 24.2666 135.662C24.2666 134.491 23.865 133.253 23.0617 131.947C22.2919 130.642 21.1205 129.471 19.5475 128.433L11.013 122.71C7.69961 120.635 6.04291 117.958 6.04291 114.678C6.04291 114.343 6.05965 114.008 6.09311 113.674C6.29393 111.096 7.31472 109.005 9.1555 107.398C11.0297 105.758 13.5232 104.938 16.6357 104.938C18.5435 104.938 20.8528 105.106 23.5638 105.44H26.6763L26.0237 112.82H25.5719C25.5384 111.08 24.869 109.691 23.5638 108.653C22.2585 107.582 20.5348 107.047 18.3928 107.047C15.7823 107.047 13.8913 107.833 12.7199 109.406C12.1509 110.21 11.8665 111.08 11.8665 112.017C11.8665 112.954 12.1509 113.757 12.7199 114.427C13.2889 115.063 14.1925 115.765 15.4309 116.535L24.8188 122.66C26.7265 123.898 28.2159 125.354 29.2869 127.028C30.5587 129.002 31.1946 131.027 31.1946 133.102C31.1946 134.441 30.9101 135.863 30.3412 137.369C29.8057 138.842 28.902 140.214 27.6302 141.486C26.3919 142.758 24.7854 143.795 22.8107 144.599C20.8361 145.402 18.6439 145.804 16.2341 145.804C13.8578 145.804 11.6991 145.385 9.75793 144.548C6.17679 143.042 3.90092 140.415 2.93033 136.667C2.72951 135.863 2.62911 135.027 2.62911 134.156C2.62911 131.345 3.61643 128.684 5.59108 126.174L6.04291 126.526ZM67.5941 126.124L68.046 134.759C67.3096 135.997 66.3223 137.118 65.084 138.122C63.8456 139.127 62.3061 139.946 60.4653 140.582C58.6245 141.185 56.4491 141.486 53.9389 141.486C49.8557 141.453 46.2746 140.716 43.1955 139.277C40.1498 137.804 37.7903 135.713 36.1169 133.002C34.4434 130.291 33.6067 127.011 33.6067 123.162C33.6067 119.413 34.4267 116.184 36.0667 113.473C37.7066 110.728 40.0494 108.62 43.0951 107.147C46.1742 105.675 49.839 104.938 54.0895 104.938C56.767 104.938 59.16 105.206 61.2686 105.742C63.4105 106.277 65.2011 106.93 66.6403 107.699L66.6905 116.284H66.2387C65.335 112.971 63.8624 110.611 61.8208 109.206C59.7792 107.766 57.3862 107.047 54.6418 107.047C51.9643 107.047 49.6717 107.699 47.7639 109.005C45.8562 110.31 44.3836 112.151 43.3461 114.527C42.3086 116.903 41.7898 119.748 41.7898 123.062C41.7898 126.375 42.2751 129.237 43.2457 131.646C44.2497 134.056 45.6554 135.93 47.4627 137.269C49.3035 138.608 51.4622 139.311 53.9389 139.378C56.516 139.378 58.6915 138.959 60.4653 138.122C62.2391 137.286 63.6616 135.897 64.7326 133.956C65.837 132.014 66.657 129.404 67.1925 126.124H67.5941ZM82.1201 105.641H88.5962C90.1023 105.641 91.575 105.808 93.0141 106.143C94.4533 106.478 95.7251 107.013 96.8295 107.75C97.9675 108.486 98.8711 109.457 99.5405 110.661C100.21 111.866 100.545 113.356 100.545 115.129C100.545 116.535 100.243 117.941 99.6409 119.347C99.0719 120.719 98.185 121.907 96.9801 122.911C95.7753 123.882 94.219 124.467 92.3113 124.668C93.3823 125.003 94.3528 125.605 95.223 126.475C96.1267 127.346 96.863 128.216 97.432 129.086C97.4654 129.153 97.6495 129.454 97.9842 129.99C98.3524 130.525 98.7874 131.194 99.2895 131.998C99.825 132.767 100.377 133.554 100.946 134.357C101.515 135.16 102.034 135.863 102.502 136.466C103.239 137.369 103.908 138.106 104.511 138.675C105.113 139.21 105.749 139.612 106.418 139.88C107.088 140.114 107.857 140.248 108.728 140.281V140.783H103.808C102 140.783 100.36 140.633 98.8879 140.331C97.4152 139.997 96.11 139.444 94.972 138.675C93.8341 137.905 92.8468 136.867 92.01 135.562C91.7423 135.16 91.4411 134.658 91.1064 134.056C90.8052 133.42 90.4872 132.751 90.1525 132.048C89.8178 131.345 89.4832 130.676 89.1485 130.04C88.8473 129.37 88.5795 128.768 88.3452 128.232C88.1109 127.697 87.9436 127.279 87.8432 126.977C87.4081 125.906 86.8893 125.103 86.2869 124.568C85.7179 124.032 85.0988 123.714 84.4294 123.614V123.112C84.5298 123.112 84.7306 123.112 85.0318 123.112C85.333 123.112 85.651 123.112 85.9857 123.112C86.8893 123.112 87.7595 122.928 88.5962 122.56C89.4664 122.191 90.2362 121.589 90.9056 120.752C91.575 119.915 92.0435 118.761 92.3113 117.288C92.3782 116.987 92.4284 116.636 92.4619 116.234C92.5288 115.832 92.5455 115.38 92.5121 114.878C92.4117 112.469 91.8092 110.712 90.7048 109.607C89.6003 108.469 88.2281 107.884 86.5881 107.85C86.1196 107.817 85.6008 107.817 85.0318 107.85C84.4963 107.85 83.9943 107.85 83.5257 107.85C83.0906 107.85 82.7894 107.85 82.6221 107.85C82.6221 107.817 82.5719 107.632 82.4715 107.298C82.4045 106.93 82.3209 106.561 82.2205 106.193C82.1535 105.825 82.1201 105.641 82.1201 105.641ZM82.7727 105.641V140.783H75.2422V105.641H82.7727ZM75.3929 137.118V140.783H71.3766V140.281C71.4101 140.281 71.5105 140.281 71.6778 140.281C71.8786 140.281 71.9958 140.281 72.0293 140.281C72.8994 140.281 73.6357 139.98 74.2382 139.378C74.8741 138.742 75.2088 137.989 75.2422 137.118H75.3929ZM75.3929 109.306H75.2422C75.2088 108.436 74.8741 107.699 74.2382 107.097C73.6357 106.461 72.8994 106.143 72.0293 106.143C71.9958 106.143 71.8786 106.143 71.6778 106.143C71.5105 106.143 71.4101 106.143 71.3766 106.143V105.641H75.3929V109.306ZM82.6221 137.118H82.7727C82.7727 137.989 83.0906 138.742 83.7265 139.378C84.3625 139.98 85.1155 140.281 85.9857 140.281C86.0526 140.281 86.1698 140.281 86.3371 140.281C86.5044 140.281 86.5881 140.281 86.5881 140.281V140.783H82.6221V137.118ZM118.284 105.641V140.783H110.753V105.641H118.284ZM110.904 137.118V140.783H106.888V140.281C106.888 140.281 106.988 140.281 107.189 140.281C107.423 140.281 107.54 140.281 107.54 140.281C108.411 140.281 109.147 139.98 109.749 139.378C110.385 138.742 110.72 137.989 110.753 137.118H110.904ZM110.904 109.306H110.753C110.72 108.436 110.385 107.699 109.749 107.097C109.147 106.461 108.411 106.143 107.54 106.143C107.54 106.143 107.423 106.143 107.189 106.143C106.988 106.143 106.888 106.143 106.888 106.143V105.641H110.904V109.306ZM118.133 137.118H118.284C118.317 137.989 118.635 138.742 119.238 139.378C119.874 139.98 120.627 140.281 121.497 140.281C121.497 140.281 121.597 140.281 121.798 140.281C121.999 140.281 122.116 140.281 122.149 140.281V140.783H118.133V137.118ZM118.133 109.306V105.641H122.149V106.143C122.116 106.143 121.999 106.143 121.798 106.143C121.597 106.143 121.497 106.143 121.497 106.143C120.627 106.143 119.874 106.461 119.238 107.097C118.635 107.699 118.317 108.436 118.284 109.306H118.133ZM135.941 105.641H141.966C144.844 105.641 147.17 106.059 148.944 106.896C150.751 107.733 152.09 108.888 152.96 110.36C153.864 111.799 154.349 113.439 154.416 115.28C154.483 116.987 154.198 118.543 153.562 119.949C152.927 121.355 152.056 122.526 150.952 123.463C149.847 124.4 148.576 125.086 147.136 125.521C145.731 125.923 144.258 126.024 142.719 125.823C141.213 125.588 139.74 125.003 138.301 124.066V123.564C138.301 123.564 138.502 123.564 138.903 123.564C139.338 123.564 139.874 123.497 140.51 123.363C141.179 123.229 141.865 122.978 142.568 122.61C143.304 122.242 143.99 121.673 144.626 120.903C145.262 120.133 145.748 119.112 146.082 117.84C146.216 117.405 146.3 116.92 146.333 116.385C146.4 115.816 146.417 115.297 146.383 114.828C146.35 112.686 145.764 110.979 144.626 109.708C143.522 108.402 141.949 107.75 139.907 107.75H136.443C136.443 107.75 136.393 107.582 136.293 107.248C136.226 106.879 136.142 106.528 136.042 106.193C135.975 105.825 135.941 105.641 135.941 105.641ZM136.594 105.641V140.783H129.063V105.641H136.594ZM129.214 137.118V140.783H125.198V140.281C125.231 140.281 125.332 140.281 125.499 140.281C125.7 140.281 125.817 140.281 125.85 140.281C126.721 140.281 127.457 139.98 128.059 139.378C128.695 138.742 129.03 137.989 129.063 137.118H129.214ZM129.214 109.306H129.063C129.063 108.436 128.745 107.699 128.11 107.097C127.474 106.461 126.721 106.143 125.85 106.143C125.817 106.143 125.717 106.143 125.549 106.143C125.382 106.143 125.281 106.143 125.248 106.143L125.198 105.641H129.214V109.306ZM136.443 137.118H136.594C136.627 137.989 136.945 138.742 137.548 139.378C138.184 139.98 138.937 140.281 139.807 140.281C139.84 140.281 139.941 140.281 140.108 140.281C140.309 140.281 140.426 140.281 140.459 140.281V140.783H136.443V137.118ZM209.099 149.318C206.489 150.623 203.711 151.276 200.766 151.276C198.155 151.276 195.779 150.874 193.637 150.071C189.018 148.364 185.086 145.034 181.839 140.08C181.003 138.875 179.446 136.566 177.17 133.152C174.895 129.739 173.422 127.563 172.753 126.626C171.581 124.785 170.644 123.781 169.941 123.614V123.112C169.975 123.112 170.008 123.112 170.042 123.112C170.108 123.112 170.175 123.112 170.242 123.112C170.309 123.112 170.376 123.112 170.443 123.112C170.51 123.112 170.594 123.112 170.694 123.112C170.795 123.112 170.878 123.112 170.945 123.112C172.652 123.112 174.225 122.727 175.664 121.957C177.84 120.752 178.927 118.527 178.927 115.28C178.927 112.904 178.258 111.08 176.919 109.808C175.581 108.503 173.974 107.85 172.1 107.85H168.284V137.118C168.284 137.989 168.602 138.742 169.238 139.378C169.874 139.98 170.627 140.281 171.497 140.281H172.15V140.783H156.888V140.281H157.541C158.378 140.281 159.114 139.98 159.75 139.378C160.386 138.775 160.721 138.039 160.754 137.169V109.306C160.721 108.436 160.386 107.699 159.75 107.097C159.148 106.461 158.411 106.143 157.541 106.143H156.888V105.641H174.108C178.425 105.641 181.772 106.628 184.149 108.603C186.023 110.143 186.96 112.318 186.96 115.129C186.96 117.941 186.04 120.233 184.199 122.007C182.391 123.748 180.316 124.618 177.974 124.618C177.773 124.618 177.555 124.601 177.321 124.568C178.693 125.304 179.831 126.124 180.735 127.028C181.672 127.931 182.475 128.785 183.145 129.588C183.847 130.391 184.433 131.111 184.902 131.747C185.404 132.349 186.056 133.169 186.86 134.207C187.663 135.211 188.5 136.265 189.37 137.369C190.24 138.474 191.194 139.612 192.231 140.783C193.302 141.921 194.474 143.009 195.745 144.046C197.051 145.084 198.373 145.937 199.712 146.607C202.556 148.046 205.686 148.782 209.099 148.816V149.318Z" fill="#F3F5F7"/>
<g opacity="0.0169903">
<path d="M85.4283 83.6456C80.2628 85.4314 76.3222 84.357 76.4228 84.3158C80.9492 88.399 86.2257 90.8035 92.6091 91.8466C92.1119 91.5634 88.4629 89.6592 85.4283 83.6456Z" fill="#F3F5F7"/>
</g>
<path d="M85.4693 4.44684C79.431 11.0522 74.6219 25.7677 95.2558 35.1925C97.9297 36.2838 100.502 37.029 103.111 37.7973C119.595 42.7453 125.989 49.0358 129.102 61.3949C124.084 46.3984 110.328 41.9355 99.8329 39.0611C92.9566 37.1778 88.1452 34.9825 84.6995 31.7788C80.094 27.4968 73.1923 18.8641 82.8779 4.49121C72.9872 10.7309 67.877 23.3275 77.2213 35.3341C74.5226 34.6328 72.0879 33.0164 69.8662 30.8055C71.8812 38.6593 79.5411 44.434 86.2693 44.9807C97.5208 45.9686 98.5524 46.2847 105.35 47.5982C100.995 47.7739 96.78 49.5663 93.9637 51.2898C111.398 48.6246 119.148 55.6453 126.923 62.6403C125.33 62.72 123.97 62.6763 121.083 63.4401C127.053 65.5574 126.839 68.6833 127.223 72.0332C126.704 71.7225 126.184 71.515 125.664 71.4012C126.148 73.433 126.233 75.4628 124.868 78.003C124.615 76.9666 124.527 76.3618 124.389 75.5439C124.266 76.7386 124.135 78.3382 123.695 79.4423C123.061 80.1497 122.066 80.4617 121.11 80.8145C121.809 80.8001 122.53 80.869 123.296 81.1223C122.29 82.8721 120.871 84.3376 119.439 85.7927L117.802 84.9667C117.639 86.8667 117.069 88.4258 116.24 90.3473C127.296 81.1135 131.074 71.8422 131.083 63.678C131.083 48.1667 122.583 39.3891 109.349 34.4132C107.853 33.9651 106.451 33.5028 105.141 33.028C103.253 32.0987 101.46 26.9528 101.095 25.5014C100.309 28.9758 101.81 31.8741 100.597 31.1785C89.7025 26.1909 87.5528 20.5089 87.2537 16.8189C86.8146 7.19742 93.8401 4.62709 98.2034 4.441C101.553 4.3674 104.794 5.80099 107.816 7.98158C108.582 8.54296 109.733 9.9262 110.068 12.0273C110.478 10.553 110.533 10.1681 111.088 10.6812C112.864 12.3221 114.537 14.1441 116.085 15.9612C117.86 18.0616 120.854 21.264 123.323 21.6231C124.7 21.78 125.489 21.2583 125.893 20.918C126.536 20.4218 127.149 19.5526 127.732 17.9263C125.874 20.2549 124.66 20.6239 122.888 19.6061C120.896 18.2019 119.651 15.868 118.471 14.0409C113.615 6.54058 107.711 0.558964 98.0952 0C91.7425 0.126275 88.3174 1.8577 85.4693 4.44684Z" fill="#F3F5F7"/>
<path d="M60.0283 69.3002C67.939 68.368 71.0264 68.3345 74.4928 69.9525C66.8557 71.2139 62.1709 73.7145 61.412 75.683C64.911 77.116 70.3236 77.7423 76.1162 77.0251C75.4971 78.0012 72.7837 79.8634 71.0133 84.8769C73.6726 85.0663 76.716 84.6356 80.3876 83.4558C80.3845 86.0739 80.3378 88.884 83.5456 91.8062C85.853 90.976 87.065 90.0318 88.7805 88.2764C90.3137 90.9485 94.3561 93.7529 100.828 94.1735C105.016 94.4455 109.681 93.4819 114.665 91.7253C109.195 93.2374 92.1121 96.6353 89.1996 83.8764C88.7824 85.7408 85.7039 88.6481 83.8702 88.7033C81.5062 85.6775 82.6375 82.7463 83.5844 79.8169C81.3616 80.7137 76.8024 82.756 73.3933 82.8118C75.3658 78.3536 78.6709 76.0284 78.6723 76.0285C78.5817 76.1093 69.2027 76.43 65.6371 75.1202C69.3108 72.4445 75.2062 71.6948 80.2091 70.2858C78.7795 69.2603 74.9362 67.2513 67.2439 67.9809C63.6522 68.4256 63.2182 68.5384 60.0283 69.3002Z" fill="#F3F5F7"/>
</svg>
