<svg width="78" height="79" viewBox="0 0 78 79" fill="none" xmlns="http://www.w3.org/2000/svg">
    <path fillRule="evenodd" clipRule="evenodd"
        d="M28.6576 49.841C34.8696 56.053 45.2166 49.334 42.0796 41.133L37.9756 45.237C34.8836 48.329 30.1346 43.653 33.2626 40.524L37.3666 36.42C29.1636 33.282 22.4486 43.633 28.6576 49.841ZM62.2356 18.6201L36.7966 44.059C35.2446 45.61 32.8816 43.263 34.4406 41.703L59.8796 16.2641L60.6076 10.2471L70.0906 0.76405C70.6496 0.20605 71.6016 0.66905 71.5066 1.45305L70.7446 7.75505L77.0466 6.99305C77.8316 6.89805 78.2946 7.85005 77.7356 8.40905L68.2526 17.892L62.2356 18.6201ZM0.0185547 44.059C0.0185547 14.936 34.0286 -0.900949 56.3126 17.475L53.4646 20.323C41.4586 10.677 23.9616 11.523 12.9326 22.551C-6.20145 41.686 7.47156 74.4761 34.4406 74.4761C59.9696 74.4761 74.0596 44.804 58.1766 25.035L61.0246 22.187C79.4006 44.4711 63.5636 78.4811 34.4406 78.4811C15.4286 78.4811 0.0185547 63.071 0.0185547 44.059ZM15.2876 63.21C9.99955 57.922 7.35556 50.991 7.35556 44.059C7.35556 21.48 33.4436 8.90605 51.0916 22.695L39.8766 33.91C35.4666 31.545 29.9356 32.286 26.3016 35.92C19.0576 43.164 24.2396 55.57 34.4406 55.57C43.1646 55.569 48.6726 46.2371 44.5896 38.6231L55.8056 27.4081C59.6176 32.2881 61.5256 38.1741 61.5256 44.0601C61.5246 68.0961 32.3136 80.236 15.2876 63.21Z"
        fill="black" />
</svg>